<svg width="512" height="512" viewBox="0 0 512 512" fill="none" xmlns="http://www.w3.org/2000/svg">
  <rect width="512" height="512" rx="64" fill="#2563eb"/>
  <path d="M128 256C128 185.307 185.307 128 256 128C326.693 128 384 185.307 384 256C384 326.693 326.693 384 256 384C185.307 384 128 326.693 128 256Z" fill="white"/>
  <path d="M200 220H312C320.837 220 328 227.163 328 236V276C328 284.837 320.837 292 312 292H200C191.163 292 184 284.837 184 276V236C184 227.163 191.163 220 200 220Z" fill="#2563eb"/>
  <circle cx="208" cy="304" r="16" fill="white"/>
  <circle cx="304" cy="304" r="16" fill="white"/>
  <path d="M184 236H328L320 204H192L184 236Z" fill="#1d4ed8"/>
  <rect x="240" y="180" width="32" height="24" rx="4" fill="white"/>
</svg>